<svg width="800" height="800" viewBox="0 0 800 800" fill="none" xmlns="http://www.w3.org/2000/svg">
<path fill-rule="evenodd" clip-rule="evenodd" d="M772.138 362.091C781.19 406.058 774.206 451.784 752.5 491.015L778.477 516.993L706.993 588.477L681.574 563.058C642.934 585.233 597.637 592.982 553.764 584.856C508.847 576.538 468.495 552.149 440.249 516.248C414.175 483.108 400.062 442.251 400 400.284V401C400 401.371 399.996 401.74 399.988 402.109C399.485 446.984 382.943 490.226 353.314 523.994C323.221 558.29 281.682 580.472 236.442 586.404C191.203 592.336 145.349 581.614 107.431 556.235C69.5136 530.857 42.1192 492.555 30.3556 448.47C18.5921 404.385 23.2623 357.527 43.4956 316.632C63.7289 275.736 98.1442 243.594 140.325 226.199C182.506 208.804 229.574 207.342 272.753 222.087C315.932 236.832 352.275 266.776 375.007 306.337L281.972 359.794C272.214 342.812 256.614 329.959 238.079 323.629C219.544 317.3 199.34 317.927 181.233 325.394C163.126 332.862 148.353 346.659 139.668 364.213C130.983 381.768 128.978 401.883 134.028 420.806C139.077 439.73 150.836 456.171 167.113 467.065C183.39 477.959 203.073 482.562 222.492 480.016C241.912 477.469 259.743 467.947 272.66 453.225C273.016 452.82 273.367 452.412 273.714 452H223V374H400V399.726C400.005 396.415 400.097 393.097 400.278 389.776C402.762 344.163 421.769 301.015 453.747 268.394C485.726 235.772 528.487 215.91 574.042 212.519C619.597 209.127 664.828 222.438 701.284 249.964C737.74 277.491 762.927 317.349 772.138 362.091ZM653.319 391.835L668.738 407.253C669.441 399.425 669.008 391.475 667.398 383.654C663.426 364.362 652.566 347.176 636.847 335.307C621.127 323.438 601.624 317.698 581.982 319.161C562.339 320.623 543.901 329.187 530.112 343.253C516.324 357.319 508.128 375.924 507.057 395.592C505.986 415.26 512.112 434.645 524.292 450.125C536.471 465.605 553.87 476.121 573.238 479.708C581.756 481.285 590.4 481.475 598.849 480.334L581.835 463.319L653.319 391.835Z" fill="black"/>
</svg>

